<mxfile host="65bd71144e">
    <diagram name="Restaurant Schema" id="restaurant-schema">
        <mxGraphModel dx="1475" dy="563" grid="1" gridSize="10" guides="1" tooltips="1" connect="1" arrows="1" fold="1" page="1" pageScale="1" pageWidth="1169" pageHeight="827" background="none" math="0" shadow="0">
            <root>
                <mxCell id="0"/>
                <mxCell id="1" parent="0"/>
                <mxCell id="title" value="Mrigayaa Restaurant Cum Banquet - Google DBA Compliant Schema" style="text;html=1;strokeColor=none;fillColor=none;align=center;verticalAlign=middle;whiteSpace=wrap;rounded=0;fontSize=16;fontStyle=1" parent="1" vertex="1">
                    <mxGeometry x="240" y="10" width="640" height="30" as="geometry"/>
                </mxCell>
                <mxCell id="section_user" value="User Management" style="text;html=1;strokeColor=#6c8ebf;fillColor=#dae8fc;align=center;verticalAlign=middle;whiteSpace=wrap;rounded=0;fontSize=12;fontStyle=1" parent="1" vertex="1">
                    <mxGeometry x="40" y="50" width="400" height="20" as="geometry"/>
                </mxCell>
                <mxCell id="user_table" value="User&#xa;-----------------&#xa;PK user_id: BIGINT UNSIGNED&#xa;FK role_id: TINYINT&#xa;email: VARCHAR(255)&#xa;phone: VARCHAR(20)&#xa;password_hash: VARBINARY(255)&#xa;full_name: VARCHAR(255)&#xa;profile_pic: VARCHAR(512)&#xa;reward_points: INT&#xa;is_active: BOOLEAN&#xa;created_at: TIMESTAMP&#xa;updated_at: TIMESTAMP&#xa;&#xa;IDX: idx_email_invisible (INVISIBLE)&#xa;IDX: idx_reward_points&#xa;IDX: idx_phone_invisible (INVISIBLE)&#xa;IDX: idx_user_rewards" style="rounded=0;whiteSpace=wrap;html=1;fillColor=#dae8fc;strokeColor=#6c8ebf;align=left;spacingLeft=4;fontStyle=0;verticalAlign=top;" parent="1" vertex="1">
                    <mxGeometry x="40" y="80" width="220" height="240" as="geometry"/>
                </mxCell>
                <mxCell id="user_role_table" value="UserRole&#xa;-----------------&#xa;PK role_id: TINYINT&#xa;role_name: VARCHAR(50)" style="rounded=0;whiteSpace=wrap;html=1;fillColor=#fff2cc;strokeColor=#d6b656;align=left;spacingLeft=4;fontStyle=0;verticalAlign=top;" parent="1" vertex="1">
                    <mxGeometry x="300" y="80" width="180" height="80" as="geometry"/>
                </mxCell>
                <mxCell id="reward_point_table" value="RewardPoint&#xa;-----------------&#xa;PK reward_id: BIGINT UNSIGNED&#xa;FK user_id: BIGINT UNSIGNED&#xa;points: INT&#xa;reason: VARCHAR(255)&#xa;created_at: TIMESTAMP&#xa;&#xa;IDX: idx_user_id" style="rounded=0;whiteSpace=wrap;html=1;fillColor=#dae8fc;strokeColor=#6c8ebf;align=left;spacingLeft=4;fontStyle=0;verticalAlign=top;" parent="1" vertex="1">
                    <mxGeometry x="300" y="180" width="180" height="140" as="geometry"/>
                </mxCell>
                <mxCell id="section_menu" value="Menu Management" style="text;html=1;strokeColor=#82b366;fillColor=#d5e8d4;align=center;verticalAlign=middle;whiteSpace=wrap;rounded=0;fontSize=12;fontStyle=1" parent="1" vertex="1">
                    <mxGeometry x="40" y="340" width="640" height="20" as="geometry"/>
                </mxCell>
                <mxCell id="menu_table" value="Menu&#xa;-----------------&#xa;PK menu_id: BIGINT UNSIGNED&#xa;title: VARCHAR(255)&#xa;description: TEXT&#xa;menu_pic: VARCHAR(512)&#xa;is_active: BOOLEAN&#xa;created_at: TIMESTAMP&#xa;updated_at: TIMESTAMP&#xa;&#xa;IDX: idx_active&#xa;IDX: idx_menu_availability" style="rounded=0;whiteSpace=wrap;html=1;fillColor=#d5e8d4;strokeColor=#82b366;align=left;spacingLeft=4;fontStyle=0;verticalAlign=top;" parent="1" vertex="1">
                    <mxGeometry x="40" y="370" width="180" height="180" as="geometry"/>
                </mxCell>
                <mxCell id="menuitem_table" value="MenuItem&#xa;-----------------&#xa;PK item_id: BIGINT UNSIGNED&#xa;FK menu_id: BIGINT UNSIGNED&#xa;name: VARCHAR(255)&#xa;description: TEXT&#xa;price: DECIMAL(10,2)&#xa;item_pic: VARCHAR(512)&#xa;is_offer: BOOLEAN&#xa;FK offer_id: BIGINT UNSIGNED&#xa;is_active: BOOLEAN&#xa;created_at: TIMESTAMP&#xa;updated_at: TIMESTAMP&#xa;&#xa;IDX: idx_price&#xa;IDX: idx_offer&#xa;IDX: idx_menu_item_search" style="rounded=0;whiteSpace=wrap;html=1;fillColor=#d5e8d4;strokeColor=#82b366;align=left;spacingLeft=4;fontStyle=0;verticalAlign=top;" parent="1" vertex="1">
                    <mxGeometry x="260" y="370" width="180" height="240" as="geometry"/>
                </mxCell>
                <mxCell id="offer_table" value="Offer&#xa;-----------------&#xa;PK offer_id: BIGINT UNSIGNED&#xa;title: VARCHAR(255)&#xa;description: TEXT&#xa;offer_pic: VARCHAR(512)&#xa;offer_video: VARCHAR(512)&#xa;start_time: DATETIME&#xa;end_time: DATETIME&#xa;is_active: BOOLEAN&#xa;created_at: TIMESTAMP&#xa;updated_at: TIMESTAMP&#xa;&#xa;IDX: idx_active" style="rounded=0;whiteSpace=wrap;html=1;fillColor=#d5e8d4;strokeColor=#82b366;align=left;spacingLeft=4;fontStyle=0;verticalAlign=top;" parent="1" vertex="1">
                    <mxGeometry x="480" y="370" width="200" height="200" as="geometry"/>
                </mxCell>
                <mxCell id="section_order" value="Order Management" style="text;html=1;strokeColor=#b85450;fillColor=#f8cecc;align=center;verticalAlign=middle;whiteSpace=wrap;rounded=0;fontSize=12;fontStyle=1" parent="1" vertex="1">
                    <mxGeometry x="40" y="630" width="640" height="20" as="geometry"/>
                </mxCell>
                <mxCell id="order_table" value="Order&#xa;-----------------&#xa;PK order_id: BIGINT UNSIGNED&#xa;FK user_id: BIGINT UNSIGNED&#xa;FK type_id: TINYINT&#xa;FK status_id: TINYINT&#xa;total_amount: DECIMAL(10,2)&#xa;reward_points_used: INT&#xa;created_at: TIMESTAMP&#xa;updated_at: TIMESTAMP&#xa;order_month_year: INT (Generated)&#xa;&#xa;IDX: idx_user_status&#xa;IDX: idx_order_month_year&#xa;IDX: idx_order_report&#xa;IDX: idx_order_date_range&#xa;&#xa;PARTITION BY: RANGE (YEAR(created_at)*100 + MONTH(created_at))" style="rounded=0;whiteSpace=wrap;html=1;fillColor=#f8cecc;strokeColor=#b85450;align=left;spacingLeft=4;fontStyle=0;verticalAlign=top;" parent="1" vertex="1">
                    <mxGeometry x="40" y="660" width="220" height="240" as="geometry"/>
                </mxCell>
                <mxCell id="orderitem_table" value="OrderItem&#xa;-----------------&#xa;PK order_item_id: BIGINT UNSIGNED&#xa;FK order_id: BIGINT UNSIGNED&#xa;FK item_id: BIGINT UNSIGNED&#xa;quantity: INT&#xa;price: DECIMAL(10,2)&#xa;&#xa;IDX: idx_order_id" style="rounded=0;whiteSpace=wrap;html=1;fillColor=#f8cecc;strokeColor=#b85450;align=left;spacingLeft=4;fontStyle=0;verticalAlign=top;" parent="1" vertex="1">
                    <mxGeometry x="280" y="660" width="200" height="120" as="geometry"/>
                </mxCell>
                <mxCell id="ordertype_table" value="OrderType&#xa;-----------------&#xa;PK type_id: TINYINT&#xa;type_name: VARCHAR(50)" style="rounded=0;whiteSpace=wrap;html=1;fillColor=#fff2cc;strokeColor=#d6b656;align=left;spacingLeft=4;fontStyle=0;verticalAlign=top;" parent="1" vertex="1">
                    <mxGeometry x="500" y="660" width="180" height="80" as="geometry"/>
                </mxCell>
                <mxCell id="orderstatus_table" value="OrderStatus&#xa;-----------------&#xa;PK status_id: TINYINT&#xa;status_name: VARCHAR(50)" style="rounded=0;whiteSpace=wrap;html=1;fillColor=#fff2cc;strokeColor=#d6b656;align=left;spacingLeft=4;fontStyle=0;verticalAlign=top;" parent="1" vertex="1">
                    <mxGeometry x="500" y="760" width="180" height="80" as="geometry"/>
                </mxCell>
                <mxCell id="section_booking" value="Booking Management" style="text;html=1;strokeColor=#9673a6;fillColor=#e1d5e7;align=center;verticalAlign=middle;whiteSpace=wrap;rounded=0;fontSize=12;fontStyle=1" parent="1" vertex="1">
                    <mxGeometry x="40" y="920" width="640" height="20" as="geometry"/>
                </mxCell>
                <mxCell id="tablebooking_table" value="TableBooking&#xa;-----------------&#xa;PK booking_id: BIGINT UNSIGNED&#xa;FK user_id: BIGINT UNSIGNED&#xa;table_no: INT&#xa;booking_time: DATETIME&#xa;FK status_id: TINYINT&#xa;menu_prebooked: JSON&#xa;created_at: TIMESTAMP&#xa;updated_at: TIMESTAMP&#xa;booking_hour: TINYINT (Generated)&#xa;&#xa;IDX: idx_user_time&#xa;IDX: idx_rush_hour" style="rounded=0;whiteSpace=wrap;html=1;fillColor=#e1d5e7;strokeColor=#9673a6;align=left;spacingLeft=4;fontStyle=0;verticalAlign=top;" parent="1" vertex="1">
                    <mxGeometry x="40" y="950" width="200" height="200" as="geometry"/>
                </mxCell>
                <mxCell id="banquetbooking_table" value="BanquetBooking&#xa;-----------------&#xa;PK banquet_id: BIGINT UNSIGNED&#xa;FK user_id: BIGINT UNSIGNED&#xa;event_date: DATETIME&#xa;FK status_id: TINYINT&#xa;sample_menu: JSON&#xa;custom_menu: JSON&#xa;venue_360_view: VARCHAR(512)&#xa;created_at: TIMESTAMP&#xa;updated_at: TIMESTAMP&#xa;&#xa;IDX: idx_user_time&#xa;IDX: idx_banquet_availability" style="rounded=0;whiteSpace=wrap;html=1;fillColor=#e1d5e7;strokeColor=#9673a6;align=left;spacingLeft=4;fontStyle=0;verticalAlign=top;" parent="1" vertex="1">
                    <mxGeometry x="260" y="950" width="200" height="200" as="geometry"/>
                </mxCell>
                <mxCell id="bookingstatus_table" value="BookingStatus&#xa;-----------------&#xa;PK status_id: TINYINT&#xa;status_name: VARCHAR(50)" style="rounded=0;whiteSpace=wrap;html=1;fillColor=#fff2cc;strokeColor=#d6b656;align=left;spacingLeft=4;fontStyle=0;verticalAlign=top;" parent="1" vertex="1">
                    <mxGeometry x="500" y="950" width="180" height="80" as="geometry"/>
                </mxCell>
                <mxCell id="section_content" value="Content Management" style="text;html=1;strokeColor=#666666;fillColor=#f5f5f5;align=center;verticalAlign=middle;whiteSpace=wrap;rounded=0;fontSize=12;fontStyle=1;fontColor=#333333" parent="1" vertex="1">
                    <mxGeometry x="700" y="50" width="420" height="20" as="geometry"/>
                </mxCell>
                <mxCell id="gallery_table" value="Gallery&#xa;-----------------&#xa;PK gallery_id: BIGINT UNSIGNED&#xa;FK type_id: TINYINT&#xa;url: VARCHAR(512)&#xa;description: TEXT&#xa;uploaded_at: TIMESTAMP" style="rounded=0;whiteSpace=wrap;html=1;fillColor=#f5f5f5;strokeColor=#666666;align=left;spacingLeft=4;fontStyle=0;verticalAlign=top;fontColor=#333333" parent="1" vertex="1">
                    <mxGeometry x="700" y="80" width="200" height="110" as="geometry"/>
                </mxCell>
                <mxCell id="mediatype_table" value="MediaType&#xa;-----------------&#xa;PK type_id: TINYINT&#xa;type_name: VARCHAR(50)" style="rounded=0;whiteSpace=wrap;html=1;fillColor=#fff2cc;strokeColor=#d6b656;align=left;spacingLeft=4;fontStyle=0;verticalAlign=top;" parent="1" vertex="1">
                    <mxGeometry x="940" y="80" width="180" height="80" as="geometry"/>
                </mxCell>
                <mxCell id="socialfeed_table" value="SocialFeed&#xa;-----------------&#xa;PK feed_id: BIGINT UNSIGNED&#xa;FK type_id: TINYINT&#xa;content: TEXT&#xa;media_url: VARCHAR(512)&#xa;posted_at: TIMESTAMP&#xa;&#xa;IDX: idx_social_feed_timeline" style="rounded=0;whiteSpace=wrap;html=1;fillColor=#f5f5f5;strokeColor=#666666;align=left;spacingLeft=4;fontStyle=0;verticalAlign=top;fontColor=#333333" parent="1" vertex="1">
                    <mxGeometry x="700" y="210" width="200" height="140" as="geometry"/>
                </mxCell>
                <mxCell id="feedtype_table" value="FeedType&#xa;-----------------&#xa;PK type_id: TINYINT&#xa;type_name: VARCHAR(50)" style="rounded=0;whiteSpace=wrap;html=1;fillColor=#fff2cc;strokeColor=#d6b656;align=left;spacingLeft=4;fontStyle=0;verticalAlign=top;" parent="1" vertex="1">
                    <mxGeometry x="940" y="210" width="180" height="80" as="geometry"/>
                </mxCell>
                <mxCell id="aicontent_table" value="AIContent&#xa;-----------------&#xa;PK ai_content_id: BIGINT UNSIGNED&#xa;FK user_id: BIGINT UNSIGNED&#xa;FK type_id: TINYINT&#xa;content: TEXT&#xa;media_url: VARCHAR(512)&#xa;created_at: TIMESTAMP" style="rounded=0;whiteSpace=wrap;html=1;fillColor=#f5f5f5;strokeColor=#666666;align=left;spacingLeft=4;fontStyle=0;verticalAlign=top;fontColor=#333333" parent="1" vertex="1">
                    <mxGeometry x="700" y="370" width="200" height="130" as="geometry"/>
                </mxCell>
                <mxCell id="aicontenttype_table" value="AIContentType&#xa;-----------------&#xa;PK type_id: TINYINT&#xa;type_name: VARCHAR(50)" style="rounded=0;whiteSpace=wrap;html=1;fillColor=#fff2cc;strokeColor=#d6b656;align=left;spacingLeft=4;fontStyle=0;verticalAlign=top;" parent="1" vertex="1">
                    <mxGeometry x="940" y="370" width="180" height="80" as="geometry"/>
                </mxCell>
                <mxCell id="section_reporting" value="Feedback &amp; Reporting" style="text;html=1;strokeColor=#d79b00;fillColor=#ffe6cc;align=center;verticalAlign=middle;whiteSpace=wrap;rounded=0;fontSize=12;fontStyle=1" parent="1" vertex="1">
                    <mxGeometry x="700" y="520" width="420" height="20" as="geometry"/>
                </mxCell>
                <mxCell id="feedback_table" value="Feedback&#xa;-----------------&#xa;PK feedback_id: BIGINT UNSIGNED&#xa;FK user_id: BIGINT UNSIGNED&#xa;message: TEXT&#xa;rating: INT&#xa;created_at: TIMESTAMP&#xa;&#xa;IDX: idx_rating" style="rounded=0;whiteSpace=wrap;html=1;fillColor=#f5f5f5;strokeColor=#666666;align=left;spacingLeft=4;fontStyle=0;verticalAlign=top;fontColor=#333333" parent="1" vertex="1">
                    <mxGeometry x="700" y="550" width="200" height="130" as="geometry"/>
                </mxCell>
                <mxCell id="inquiry_table" value="Inquiry&#xa;-----------------&#xa;PK inquiry_id: BIGINT UNSIGNED&#xa;FK user_id: BIGINT UNSIGNED&#xa;FK type_id: TINYINT&#xa;FK status_id: TINYINT&#xa;message: TEXT&#xa;created_at: TIMESTAMP" style="rounded=0;whiteSpace=wrap;html=1;fillColor=#f5f5f5;strokeColor=#666666;align=left;spacingLeft=4;fontStyle=0;verticalAlign=top;fontColor=#333333" parent="1" vertex="1">
                    <mxGeometry x="920" y="550" width="200" height="130" as="geometry"/>
                </mxCell>
                <mxCell id="inquirytype_table" value="InquiryType&#xa;-----------------&#xa;PK type_id: TINYINT&#xa;type_name: VARCHAR(50)" style="rounded=0;whiteSpace=wrap;html=1;fillColor=#fff2cc;strokeColor=#d6b656;align=left;spacingLeft=4;fontStyle=0;verticalAlign=top;" parent="1" vertex="1">
                    <mxGeometry x="700" y="700" width="180" height="80" as="geometry"/>
                </mxCell>
                <mxCell id="inquirystatus_table" value="InquiryStatus&#xa;-----------------&#xa;PK status_id: TINYINT&#xa;status_name: VARCHAR(50)" style="rounded=0;whiteSpace=wrap;html=1;fillColor=#fff2cc;strokeColor=#d6b656;align=left;spacingLeft=4;fontStyle=0;verticalAlign=top;" parent="1" vertex="1">
                    <mxGeometry x="920" y="700" width="180" height="80" as="geometry"/>
                </mxCell>
                <mxCell id="dailysalessummary_table" value="DailySalesSummary&#xa;-----------------&#xa;PK summary_id: BIGINT UNSIGNED&#xa;summary_date: DATE&#xa;total_orders: INT&#xa;total_sales: DECIMAL(12,2)&#xa;top_menu_item: VARCHAR(255)&#xa;updated_at: TIMESTAMP&#xa;&#xa;IDX: idx_summary_date" style="rounded=0;whiteSpace=wrap;html=1;fillColor=#ffe6cc;strokeColor=#d79b00;align=left;spacingLeft=4;fontStyle=0;verticalAlign=top;" parent="1" vertex="1">
                    <mxGeometry x="700" y="800" width="200" height="150" as="geometry"/>
                </mxCell>
                <mxCell id="topmenuitems_table" value="TopMenuItems&#xa;-----------------&#xa;PK summary_id: BIGINT UNSIGNED&#xa;FK item_id: BIGINT UNSIGNED&#xa;summary_date: DATE&#xa;item_name: VARCHAR(255)&#xa;total_sold: INT&#xa;&#xa;IDX: idx_date_item" style="rounded=0;whiteSpace=wrap;html=1;fillColor=#ffe6cc;strokeColor=#d79b00;align=left;spacingLeft=4;fontStyle=0;verticalAlign=top;" parent="1" vertex="1">
                    <mxGeometry x="920" y="800" width="200" height="130" as="geometry"/>
                </mxCell>
                <mxCell id="customeractivitysummary_table" value="CustomerActivitySummary&#xa;-----------------&#xa;PK summary_id: BIGINT UNSIGNED&#xa;FK user_id: BIGINT UNSIGNED&#xa;activity_date: DATE&#xa;orders_count: INT&#xa;total_spent: DECIMAL(12,2)&#xa;&#xa;IDX: idx_user_date" style="rounded=0;whiteSpace=wrap;html=1;fillColor=#ffe6cc;strokeColor=#d79b00;align=left;spacingLeft=4;fontStyle=0;verticalAlign=top;" parent="1" vertex="1">
                    <mxGeometry x="700" y="970" width="200" height="130" as="geometry"/>
                </mxCell>
                <mxCell id="section_security" value="Security &amp; Audit" style="text;html=1;strokeColor=#666666;fillColor=#f5f5f5;align=center;verticalAlign=middle;whiteSpace=wrap;rounded=0;fontSize=12;fontStyle=1;fontColor=#333333" parent="1" vertex="1">
                    <mxGeometry x="920" y="950" width="200" height="20" as="geometry"/>
                </mxCell>
                <mxCell id="auditlog_table" value="AuditLog&#xa;-----------------&#xa;PK audit_id: BIGINT UNSIGNED&#xa;FK user_id: BIGINT UNSIGNED&#xa;FK category_id: TINYINT&#xa;action: VARCHAR(255)&#xa;details: TEXT&#xa;created_at: TIMESTAMP&#xa;&#xa;IDX: idx_action" style="rounded=0;whiteSpace=wrap;html=1;fillColor=#f5f5f5;strokeColor=#666666;align=left;spacingLeft=4;fontStyle=0;verticalAlign=top;fontColor=#333333" parent="1" vertex="1">
                    <mxGeometry x="920" y="980" width="200" height="140" as="geometry"/>
                </mxCell>
                <mxCell id="auditactioncategory_table" value="AuditActionCategory&#xa;-----------------&#xa;PK category_id: TINYINT&#xa;category_name: VARCHAR(50)" style="rounded=0;whiteSpace=wrap;html=1;fillColor=#fff2cc;strokeColor=#d6b656;align=left;spacingLeft=4;fontStyle=0;verticalAlign=top;" parent="1" vertex="1">
                    <mxGeometry x="920" y="1130" width="200" height="80" as="geometry"/>
                </mxCell>
                <mxCell id="notificationqueue_table" value="NotificationQueue&#xa;-----------------&#xa;PK notification_id: BIGINT UNSIGNED&#xa;FK user_id: BIGINT UNSIGNED&#xa;title: VARCHAR(255)&#xa;message: TEXT&#xa;status: ENUM&#xa;created_at: TIMESTAMP" style="rounded=0;whiteSpace=wrap;html=1;fillColor=#f5f5f5;strokeColor=#666666;align=left;spacingLeft=4;fontStyle=0;verticalAlign=top;fontColor=#333333" parent="1" vertex="1">
                    <mxGeometry x="700" y="1120" width="200" height="130" as="geometry"/>
                </mxCell>
                <mxCell id="user_to_role" style="edgeStyle=orthogonalEdgeStyle;rounded=0;orthogonalLoop=1;jettySize=auto;html=1;exitX=1;exitY=0.25;exitDx=0;exitDy=0;entryX=0;entryY=0.25;entryDx=0;entryDy=0;startArrow=none;startFill=0;endArrow=classic;endFill=1;" parent="1" source="user_table" target="user_role_table" edge="1">
                    <mxGeometry relative="1" as="geometry"/>
                </mxCell>
                <mxCell id="user_to_reward" style="edgeStyle=orthogonalEdgeStyle;rounded=0;orthogonalLoop=1;jettySize=auto;html=1;exitX=1;exitY=0.75;exitDx=0;exitDy=0;entryX=0;entryY=0.25;entryDx=0;entryDy=0;startArrow=none;startFill=0;endArrow=classic;endFill=1;" parent="1" source="user_table" target="reward_point_table" edge="1">
                    <mxGeometry relative="1" as="geometry"/>
                </mxCell>
                <mxCell id="menu_to_menuitem" style="edgeStyle=orthogonalEdgeStyle;rounded=0;orthogonalLoop=1;jettySize=auto;html=1;exitX=1;exitY=0.25;exitDx=0;exitDy=0;entryX=0;entryY=0.25;entryDx=0;entryDy=0;startArrow=none;startFill=0;endArrow=classic;endFill=1;" parent="1" source="menu_table" target="menuitem_table" edge="1">
                    <mxGeometry relative="1" as="geometry"/>
                </mxCell>
                <mxCell id="menuitem_to_offer" style="edgeStyle=orthogonalEdgeStyle;rounded=0;orthogonalLoop=1;jettySize=auto;html=1;exitX=1;exitY=0.25;exitDx=0;exitDy=0;entryX=0;entryY=0.25;entryDx=0;entryDy=0;startArrow=none;startFill=0;endArrow=classic;endFill=1;" parent="1" source="menuitem_table" target="offer_table" edge="1">
                    <mxGeometry relative="1" as="geometry"/>
                </mxCell>
                <mxCell id="user_to_order" style="edgeStyle=orthogonalEdgeStyle;rounded=0;orthogonalLoop=1;jettySize=auto;html=1;exitX=0.5;exitY=1;exitDx=0;exitDy=0;entryX=0;entryY=0;entryDx=0;entryDy=0;startArrow=none;startFill=0;endArrow=classic;endFill=1;" parent="1" source="user_table" target="order_table" edge="1">
                    <mxGeometry relative="1" as="geometry">
                        <Array as="points">
                            <mxPoint x="150" y="340"/>
                            <mxPoint x="20" y="340"/>
                            <mxPoint x="20" y="660"/>
                        </Array>
                    </mxGeometry>
                </mxCell>
                <mxCell id="order_to_orderitem" style="edgeStyle=orthogonalEdgeStyle;rounded=0;orthogonalLoop=1;jettySize=auto;html=1;exitX=1;exitY=0.25;exitDx=0;exitDy=0;entryX=0;entryY=0.25;entryDx=0;entryDy=0;startArrow=none;startFill=0;endArrow=classic;endFill=1;" parent="1" source="order_table" target="orderitem_table" edge="1">
                    <mxGeometry relative="1" as="geometry"/>
                </mxCell>
                <mxCell id="orderitem_to_menuitem" style="edgeStyle=orthogonalEdgeStyle;rounded=0;orthogonalLoop=1;jettySize=auto;html=1;exitX=0.75;exitY=0;exitDx=0;exitDy=0;entryX=0.75;entryY=1;entryDx=0;entryDy=0;startArrow=none;startFill=0;endArrow=classic;endFill=1;" parent="1" source="orderitem_table" target="menuitem_table" edge="1">
                    <mxGeometry relative="1" as="geometry">
                        <Array as="points">
                            <mxPoint x="430" y="640"/>
                            <mxPoint x="390" y="640"/>
                        </Array>
                    </mxGeometry>
                </mxCell>
                <mxCell id="order_to_ordertype" style="edgeStyle=orthogonalEdgeStyle;rounded=0;orthogonalLoop=1;jettySize=auto;html=1;exitX=1;exitY=0.25;exitDx=0;exitDy=0;entryX=0;entryY=0.25;entryDx=0;entryDy=0;startArrow=none;startFill=0;endArrow=classic;endFill=1;" parent="1" source="order_table" target="ordertype_table" edge="1">
                    <mxGeometry relative="1" as="geometry">
                        <Array as="points">
                            <mxPoint x="280" y="675"/>
                            <mxPoint x="280" y="680"/>
                        </Array>
                    </mxGeometry>
                </mxCell>
                <mxCell id="order_to_orderstatus" style="edgeStyle=orthogonalEdgeStyle;rounded=0;orthogonalLoop=1;jettySize=auto;html=1;exitX=1;exitY=0.75;exitDx=0;exitDy=0;entryX=0;entryY=0.5;entryDx=0;entryDy=0;startArrow=none;startFill=0;endArrow=classic;endFill=1;" parent="1" source="order_table" target="orderstatus_table" edge="1">
                    <mxGeometry relative="1" as="geometry">
                        <Array as="points">
                            <mxPoint x="400" y="840"/>
                            <mxPoint x="400" y="800"/>
                        </Array>
                    </mxGeometry>
                </mxCell>
                <mxCell id="user_to_tablebooking" style="edgeStyle=orthogonalEdgeStyle;rounded=0;orthogonalLoop=1;jettySize=auto;html=1;exitX=0;exitY=0.75;exitDx=0;exitDy=0;entryX=0;entryY=0.25;entryDx=0;entryDy=0;startArrow=none;startFill=0;endArrow=classic;endFill=1;" parent="1" source="user_table" target="tablebooking_table" edge="1">
                    <mxGeometry relative="1" as="geometry">
                        <Array as="points">
                            <mxPoint x="20" y="260"/>
                            <mxPoint x="20" y="1000"/>
                        </Array>
                    </mxGeometry>
                </mxCell>
                <mxCell id="user_to_banquetbooking" style="edgeStyle=orthogonalEdgeStyle;rounded=0;orthogonalLoop=1;jettySize=auto;html=1;exitX=0;exitY=0.75;exitDx=0;exitDy=0;entryX=0;entryY=0.5;entryDx=0;entryDy=0;startArrow=none;startFill=0;endArrow=classic;endFill=1;" parent="1" source="user_table" target="banquetbooking_table" edge="1">
                    <mxGeometry relative="1" as="geometry">
                        <Array as="points">
                            <mxPoint x="10" y="260"/>
                            <mxPoint x="10" y="1050"/>
                        </Array>
                    </mxGeometry>
                </mxCell>
                <mxCell id="tablebooking_to_status" style="edgeStyle=orthogonalEdgeStyle;rounded=0;orthogonalLoop=1;jettySize=auto;html=1;exitX=1;exitY=0.25;exitDx=0;exitDy=0;entryX=0;entryY=0.25;entryDx=0;entryDy=0;startArrow=none;startFill=0;endArrow=classic;endFill=1;" parent="1" source="tablebooking_table" target="bookingstatus_table" edge="1">
                    <mxGeometry relative="1" as="geometry"/>
                </mxCell>
                <mxCell id="banquetbooking_to_status" style="edgeStyle=orthogonalEdgeStyle;rounded=0;orthogonalLoop=1;jettySize=auto;html=1;exitX=1;exitY=0.25;exitDx=0;exitDy=0;entryX=0;entryY=0.75;entryDx=0;entryDy=0;startArrow=none;startFill=0;endArrow=classic;endFill=1;" parent="1" source="banquetbooking_table" target="bookingstatus_table" edge="1">
                    <mxGeometry relative="1" as="geometry">
                        <Array as="points">
                            <mxPoint x="480" y="1000"/>
                            <mxPoint x="480" y="1010"/>
                        </Array>
                    </mxGeometry>
                </mxCell>
                <mxCell id="gallery_to_mediatype" style="edgeStyle=orthogonalEdgeStyle;rounded=0;orthogonalLoop=1;jettySize=auto;html=1;exitX=1;exitY=0.25;exitDx=0;exitDy=0;entryX=0;entryY=0.25;entryDx=0;entryDy=0;startArrow=none;startFill=0;endArrow=classic;endFill=1;" parent="1" source="gallery_table" target="mediatype_table" edge="1">
                    <mxGeometry relative="1" as="geometry"/>
                </mxCell>
                <mxCell id="socialfeed_to_feedtype" style="edgeStyle=orthogonalEdgeStyle;rounded=0;orthogonalLoop=1;jettySize=auto;html=1;exitX=1;exitY=0.25;exitDx=0;exitDy=0;entryX=0;entryY=0.25;entryDx=0;entryDy=0;startArrow=none;startFill=0;endArrow=classic;endFill=1;" parent="1" source="socialfeed_table" target="feedtype_table" edge="1">
                    <mxGeometry relative="1" as="geometry"/>
                </mxCell>
                <mxCell id="aicontent_to_aicontenttype" style="edgeStyle=orthogonalEdgeStyle;rounded=0;orthogonalLoop=1;jettySize=auto;html=1;exitX=1;exitY=0.25;exitDx=0;exitDy=0;entryX=0;entryY=0.25;entryDx=0;entryDy=0;startArrow=none;startFill=0;endArrow=classic;endFill=1;" parent="1" source="aicontent_table" target="aicontenttype_table" edge="1">
                    <mxGeometry relative="1" as="geometry"/>
                </mxCell>
                <mxCell id="user_to_aicontent" style="edgeStyle=orthogonalEdgeStyle;rounded=0;orthogonalLoop=1;jettySize=auto;html=1;exitX=1;exitY=0.5;exitDx=0;exitDy=0;entryX=0;entryY=0.5;entryDx=0;entryDy=0;startArrow=none;startFill=0;endArrow=classic;endFill=1;" parent="1" source="user_table" target="aicontent_table" edge="1">
                    <mxGeometry relative="1" as="geometry">
                        <Array as="points">
                            <mxPoint x="280" y="200"/>
                            <mxPoint x="280" y="300"/>
                            <mxPoint x="680" y="300"/>
                            <mxPoint x="680" y="435"/>
                        </Array>
                    </mxGeometry>
                </mxCell>
                <mxCell id="inquiry_to_inquirytype" style="edgeStyle=orthogonalEdgeStyle;rounded=0;orthogonalLoop=1;jettySize=auto;html=1;exitX=0.25;exitY=1;exitDx=0;exitDy=0;entryX=0.5;entryY=0;entryDx=0;entryDy=0;startArrow=none;startFill=0;endArrow=classic;endFill=1;" parent="1" source="inquiry_table" target="inquirytype_table" edge="1">
                    <mxGeometry relative="1" as="geometry">
                        <Array as="points">
                            <mxPoint x="970" y="690"/>
                            <mxPoint x="790" y="690"/>
                        </Array>
                    </mxGeometry>
                </mxCell>
                <mxCell id="inquiry_to_inquirystatus" style="edgeStyle=orthogonalEdgeStyle;rounded=0;orthogonalLoop=1;jettySize=auto;html=1;exitX=0.75;exitY=1;exitDx=0;exitDy=0;entryX=0.5;entryY=0;entryDx=0;entryDy=0;startArrow=none;startFill=0;endArrow=classic;endFill=1;" parent="1" source="inquiry_table" target="inquirystatus_table" edge="1">
                    <mxGeometry relative="1" as="geometry"/>
                </mxCell>
                <mxCell id="user_to_feedback" style="edgeStyle=orthogonalEdgeStyle;rounded=0;orthogonalLoop=1;jettySize=auto;html=1;exitX=1;exitY=0.25;exitDx=0;exitDy=0;entryX=0;entryY=0.5;entryDx=0;entryDy=0;startArrow=none;startFill=0;endArrow=classic;endFill=1;" parent="1" source="user_table" target="feedback_table" edge="1">
                    <mxGeometry relative="1" as="geometry">
                        <Array as="points">
                            <mxPoint x="300" y="140"/>
                            <mxPoint x="300" y="320"/>
                            <mxPoint x="660" y="320"/>
                            <mxPoint x="660" y="615"/>
                        </Array>
                    </mxGeometry>
                </mxCell>
                <mxCell id="auditlog_to_category" style="edgeStyle=orthogonalEdgeStyle;rounded=0;orthogonalLoop=1;jettySize=auto;html=1;exitX=0.5;exitY=1;exitDx=0;exitDy=0;entryX=0.5;entryY=0;entryDx=0;entryDy=0;startArrow=none;startFill=0;endArrow=classic;endFill=1;" parent="1" source="auditlog_table" target="auditactioncategory_table" edge="1">
                    <mxGeometry relative="1" as="geometry"/>
                </mxCell>
                <mxCell id="user_to_notification" style="edgeStyle=orthogonalEdgeStyle;rounded=0;orthogonalLoop=1;jettySize=auto;html=1;exitX=0;exitY=0.25;exitDx=0;exitDy=0;entryX=0;entryY=0.25;entryDx=0;entryDy=0;startArrow=none;startFill=0;endArrow=classic;endFill=1;" parent="1" source="user_table" target="notificationqueue_table" edge="1">
                    <mxGeometry relative="1" as="geometry">
                        <Array as="points">
                            <mxPoint y="140"/>
                            <mxPoint y="1150"/>
                            <mxPoint x="660" y="1150"/>
                            <mxPoint x="660" y="1152"/>
                        </Array>
                    </mxGeometry>
                </mxCell>
                <mxCell id="menuitem_to_topmenuitems" style="edgeStyle=orthogonalEdgeStyle;rounded=0;orthogonalLoop=1;jettySize=auto;html=1;exitX=1;exitY=0.75;exitDx=0;exitDy=0;entryX=0;entryY=0.5;entryDx=0;entryDy=0;startArrow=none;startFill=0;endArrow=classic;endFill=1;" parent="1" source="menuitem_table" target="topmenuitems_table" edge="1">
                    <mxGeometry relative="1" as="geometry">
                        <Array as="points">
                            <mxPoint x="650" y="550"/>
                            <mxPoint x="650" y="865"/>
                        </Array>
                    </mxGeometry>
                </mxCell>
                <mxCell id="user_to_customersummary" style="edgeStyle=orthogonalEdgeStyle;rounded=0;orthogonalLoop=1;jettySize=auto;html=1;exitX=0.5;exitY=1;exitDx=0;exitDy=0;entryX=0;entryY=0.5;entryDx=0;entryDy=0;startArrow=none;startFill=0;endArrow=classic;endFill=1;" parent="1" source="user_table" target="customeractivitysummary_table" edge="1">
                    <mxGeometry relative="1" as="geometry">
                        <Array as="points">
                            <mxPoint x="150" y="330"/>
                            <mxPoint x="30" y="330"/>
                            <mxPoint x="30" y="1035"/>
                        </Array>
                    </mxGeometry>
                </mxCell>
                <mxCell id="legend_title" value="LEGEND" style="text;html=1;strokeColor=#666666;fillColor=#f5f5f5;align=center;verticalAlign=middle;whiteSpace=wrap;rounded=0;fontSize=12;fontStyle=1;fontColor=#333333" parent="1" vertex="1">
                    <mxGeometry x="40" y="1170" width="660" height="20" as="geometry"/>
                </mxCell>
                <mxCell id="legend_core" value="" style="rounded=0;whiteSpace=wrap;html=1;fillColor=#dae8fc;strokeColor=#6c8ebf;" parent="1" vertex="1">
                    <mxGeometry x="40" y="1200" width="20" height="20" as="geometry"/>
                </mxCell>
                <mxCell id="legend_core_label" value="User Management" style="text;html=1;strokeColor=none;fillColor=none;align=left;verticalAlign=middle;whiteSpace=wrap;rounded=0;" parent="1" vertex="1">
                    <mxGeometry x="70" y="1200" width="110" height="20" as="geometry"/>
                </mxCell>
                <mxCell id="legend_menu" value="" style="rounded=0;whiteSpace=wrap;html=1;fillColor=#d5e8d4;strokeColor=#82b366;" parent="1" vertex="1">
                    <mxGeometry x="190" y="1200" width="20" height="20" as="geometry"/>
                </mxCell>
                <mxCell id="legend_menu_label" value="Menu Management" style="text;html=1;strokeColor=none;fillColor=none;align=left;verticalAlign=middle;whiteSpace=wrap;rounded=0;" parent="1" vertex="1">
                    <mxGeometry x="220" y="1200" width="110" height="20" as="geometry"/>
                </mxCell>
                <mxCell id="legend_order" value="" style="rounded=0;whiteSpace=wrap;html=1;fillColor=#f8cecc;strokeColor=#b85450;" parent="1" vertex="1">
                    <mxGeometry x="340" y="1200" width="20" height="20" as="geometry"/>
                </mxCell>
                <mxCell id="legend_order_label" value="Order Management" style="text;html=1;strokeColor=none;fillColor=none;align=left;verticalAlign=middle;whiteSpace=wrap;rounded=0;" parent="1" vertex="1">
                    <mxGeometry x="370" y="1200" width="110" height="20" as="geometry"/>
                </mxCell>
                <mxCell id="legend_booking" value="" style="rounded=0;whiteSpace=wrap;html=1;fillColor=#e1d5e7;strokeColor=#9673a6;" parent="1" vertex="1">
                    <mxGeometry x="480" y="1200" width="20" height="20" as="geometry"/>
                </mxCell>
                <mxCell id="legend_booking_label" value="Booking Management" style="text;html=1;strokeColor=none;fillColor=none;align=left;verticalAlign=middle;whiteSpace=wrap;rounded=0;" parent="1" vertex="1">
                    <mxGeometry x="510" y="1200" width="120" height="20" as="geometry"/>
                </mxCell>
                <mxCell id="legend_lookup" value="" style="rounded=0;whiteSpace=wrap;html=1;fillColor=#fff2cc;strokeColor=#d6b656;" parent="1" vertex="1">
                    <mxGeometry x="40" y="1230" width="20" height="20" as="geometry"/>
                </mxCell>
                <mxCell id="legend_lookup_label" value="Lookup Tables" style="text;html=1;strokeColor=none;fillColor=none;align=left;verticalAlign=middle;whiteSpace=wrap;rounded=0;" parent="1" vertex="1">
                    <mxGeometry x="70" y="1230" width="110" height="20" as="geometry"/>
                </mxCell>
                <mxCell id="legend_content" value="" style="rounded=0;whiteSpace=wrap;html=1;fillColor=#f5f5f5;strokeColor=#666666;" parent="1" vertex="1">
                    <mxGeometry x="190" y="1230" width="20" height="20" as="geometry"/>
                </mxCell>
                <mxCell id="legend_content_label" value="Content Management" style="text;html=1;strokeColor=none;fillColor=none;align=left;verticalAlign=middle;whiteSpace=wrap;rounded=0;" parent="1" vertex="1">
                    <mxGeometry x="220" y="1230" width="110" height="20" as="geometry"/>
                </mxCell>
                <mxCell id="legend_reporting" value="" style="rounded=0;whiteSpace=wrap;html=1;fillColor=#ffe6cc;strokeColor=#d79b00;" parent="1" vertex="1">
                    <mxGeometry x="340" y="1230" width="20" height="20" as="geometry"/>
                </mxCell>
                <mxCell id="legend_reporting_label" value="Reporting Tables" style="text;html=1;strokeColor=none;fillColor=none;align=left;verticalAlign=middle;whiteSpace=wrap;rounded=0;" parent="1" vertex="1">
                    <mxGeometry x="370" y="1230" width="110" height="20" as="geometry"/>
                </mxCell>
                <mxCell id="legend_relationship" value="n:1" style="text;html=1;strokeColor=none;fillColor=none;align=left;verticalAlign=middle;whiteSpace=wrap;rounded=0;" parent="1" vertex="1">
                    <mxGeometry x="480" y="1230" width="50" height="20" as="geometry"/>
                </mxCell>
                <mxCell id="legend_relationship_label" value="Relationship Notation" style="text;html=1;strokeColor=none;fillColor=none;align=left;verticalAlign=middle;whiteSpace=wrap;rounded=0;" parent="1" vertex="1">
                    <mxGeometry x="510" y="1230" width="120" height="20" as="geometry"/>
                </mxCell>
                <mxCell id="google_dba_title" value="Google DBA Compliance Checklist" style="text;html=1;strokeColor=none;fillColor=none;align=left;verticalAlign=middle;whiteSpace=wrap;rounded=0;fontSize=12;fontStyle=1" parent="1" vertex="1">
                    <mxGeometry x="40" y="1260" width="660" height="20" as="geometry"/>
                </mxCell>
                <mxCell id="google_dba_points" value="✓ Lookup tables instead of ENUMs&#xa;✓ Partitioning for Order table&#xa;✓ Advanced reporting tables with triggers&#xa;✓ Generated columns for calculations&#xa;✓ Covering indexes for common queries&#xa;✓ Invisible indexes for PII security&#xa;✓ JSON columns for flexible data&#xa;✓ Audit logging system&#xa;✓ Denormalized tables for reporting" style="text;html=1;strokeColor=none;fillColor=none;align=left;verticalAlign=top;whiteSpace=wrap;rounded=0;" parent="1" vertex="1">
                    <mxGeometry x="40" y="1280" width="660" height="80" as="geometry"/>
                </mxCell>
            </root>
        </mxGraphModel>
    </diagram>
</mxfile>